# xmcd
#
# Track frame offsets: 
#        150
#        19947
#        41447
#        62147
#        78375
#        96712
#        115037
#        131530
#        148530
#        168740
#
# Disc length: 2538 seconds
#
# Revision: 1
# Processed by: cddbd v1.5.2PL0 Copyright (c) Steve Scherf et al.
# Submitted via: ExactAudioCopy v1.0b3
#
DISCID=8a09e80a
DTITLE=Various Artist - Vung Bien Vang
DYEAR=2000
DGENRE=
TTITLE0=Sy Dan - Vung bien vang
TTITLE1=Lam Nhat Tien - Pray (Loi nguyen cau cho binh minh)
TTITLE2=Lam Thuy Van - Dong song huyen thoai
TTITLE3=Thuy Tram - Tico tico
TTITLE4=Shayla - Fly away
TTITLE5=Le Tam - I'd play a fool
TTITLE6=Thanh Truc - Chi la giac mo
TTITLE7=Vu Tuan Duc - Em la niem cay dang
TTITLE8=Tu Quyen - Tuoi biet buon
TTITLE9=Vu Tuan Duc, Sy Dan - Niem co don cuoi cung
EXTD=
EXTT0=
EXTT1=
EXTT2=
EXTT3=
EXTT4=
EXTT5=
EXTT6=
EXTT7=
EXTT8=
EXTT9=
PLAYORDER=
